<?xml version="1.0" encoding="UTF-8"?>
<svg xmlns="http://www.w3.org/2000/svg" xmlns:xlink="http://www.w3.org/1999/xlink" width="3000" height="2660" viewBox="0 0 3000 2660">
<path fill-rule="evenodd" fill="rgb(100%, 61.521912%, 76.5625%)" fill-opacity="1" d="M 1320.058594 1384.089844 L 1320.058594 1572.820312 C 1320.058594 1688.296875 1413.820312 1782.046875 1529.289062 1782.046875 C 1644.769531 1782.046875 1738.519531 1688.296875 1738.519531 1572.820312 L 1738.519531 1384.089844 C 1738.519531 1230.050781 1864.011719 1104.550781 2018.058594 1104.550781 C 2172.121094 1104.550781 2297.609375 1230.050781 2297.609375 1384.089844 L 2297.609375 1572.820312 C 2297.609375 1688.296875 2391.359375 1782.046875 2506.839844 1782.046875 C 2622.320312 1782.046875 2716.070312 1688.296875 2716.070312 1572.820312 L 2716.070312 931.699219 C 2716.070312 746.398438 2565.441406 595.761719 2380.128906 595.761719 L 678.453125 595.761719 C 493.144531 595.761719 342.511719 746.398438 342.511719 931.699219 L 342.511719 1572.820312 C 342.511719 1688.296875 436.265625 1782.046875 551.742188 1782.046875 C 667.222656 1782.046875 760.972656 1688.296875 760.972656 1572.820312 L 760.972656 1384.089844 C 760.972656 1230.050781 886.464844 1104.550781 1040.519531 1104.550781 C 1194.570312 1104.550781 1320.058594 1230.050781 1320.058594 1384.089844 "/>
<path fill-rule="evenodd" fill="rgb(100%, 61.521912%, 76.5625%)" fill-opacity="1" d="M 1327.628906 427.300781 C 1365.230469 514.699219 1463.871094 524.960938 1504.390625 525.449219 L 1513.628906 525.449219 C 1604.621094 524.050781 1695.609375 481.460938 1718.988281 429.5 C 1743.648438 374.820312 1744.871094 326.480469 1722.648438 281.800781 C 1676.75 188.78125 1543.941406 134.570312 1474.851562 111.871094 C 1471.429688 175.339844 1453.371094 196.828125 1395.75 259.328125 L 1365.71875 291.800781 C 1306.640625 356.75 1319.328125 408.261719 1327.628906 427.300781 "/>
<path fill-rule="evenodd" fill="rgb(100%, 61.521912%, 76.5625%)" fill-opacity="1" d="M 2018.058594 1174.871094 C 1902.589844 1174.871094 1808.828125 1268.621094 1808.828125 1384.089844 L 1808.828125 1572.820312 C 1808.828125 1726.871094 1683.339844 1852.363281 1529.289062 1852.363281 C 1375.238281 1852.363281 1249.75 1726.871094 1249.75 1572.820312 L 1249.75 1384.089844 C 1249.75 1268.621094 1155.75 1174.871094 1040.519531 1174.871094 C 925.285156 1174.871094 831.289062 1268.621094 831.289062 1384.089844 L 831.289062 1572.820312 C 831.289062 1726.871094 705.796875 1852.363281 551.742188 1852.363281 C 528.34375 1852.363281 505.609375 1849.46875 483.871094 1844.015625 L 483.871094 1981.964844 C 559.921875 1994.351562 638.015625 2012.816406 716.289062 2037.183594 C 1215.070312 2192.945312 1510 2041.335938 1512.929688 2039.628906 C 1525.609375 2032.789062 1834.460938 1871.898438 2363.761719 2037.183594 C 2434.851562 2059.449219 2505.589844 2076.582031 2574.710938 2088.3125 L 2574.710938 1844.042969 C 2552.96875 1849.476562 2530.238281 1852.363281 2506.839844 1852.363281 C 2352.789062 1852.363281 2227.289062 1726.871094 2227.289062 1572.820312 L 2227.289062 1384.089844 C 2227.289062 1268.621094 2133.539062 1174.871094 2018.058594 1174.871094 "/>
<path fill-rule="evenodd" fill="rgb(100%, 61.521912%, 76.5625%)" fill-opacity="1" d="M 2342.53125 2104.078125 C 1843.75 1948.316406 1548.578125 2099.925781 1545.890625 2101.636719 C 1537.339844 2106.273438 1398.671875 2178.539062 1151.851562 2178.539062 C 1026.609375 2178.539062 873.28125 2159.984375 695.054688 2104.320312 C 623.882812 2082.03125 553.066406 2064.878906 483.871094 2053.15625 L 483.871094 2288.894531 L 2574.710938 2288.886719 L 2574.710938 2159.507812 C 2498.738281 2147.109375 2420.730469 2128.632812 2342.53125 2104.078125 "/>
<path fill-rule="evenodd" fill="rgb(100%, 61.521912%, 76.5625%)" fill-opacity="1" d="M 2609.871094 2359.199219 L 130.109375 2359.199219 L 302.476562 2617.996094 L 2756.109375 2617.996094 L 2928.46875 2359.207031 L 2609.871094 2359.199219 "/>
<path fill-rule="evenodd" fill="rgb(0%, 0%, 0%)" fill-opacity="1" d="M 2745.621094 2659.015625 L 254.378906 2659.015625 C 242.660156 2659.015625 231.671875 2653.15625 225.082031 2643.390625 L 5.84375 2314.285156 C -1.234375 2303.546875 -1.96875 2289.628906 4.136719 2278.152344 C 10.238281 2266.679688 22.203125 2259.601562 35.140625 2259.601562 L 2964.851562 2259.59375 C 2977.789062 2259.59375 2989.75 2266.671875 2995.859375 2278.148438 C 3001.960938 2289.621094 3001.230469 2303.539062 2994.148438 2314.28125 L 2774.910156 2643.382812 C 2768.320312 2653.15625 2757.328125 2659.015625 2745.621094 2659.015625 Z M 273.179688 2588.703125 L 2726.808594 2588.703125 L 2899.179688 2329.914062 L 100.816406 2329.90625 L 273.179688 2588.703125 "/>
<path fill-rule="evenodd" fill="rgb(0%, 0%, 0%)" fill-opacity="1" d="M 1477.53125 566.46875 C 1476.558594 566.46875 1475.339844 566.46875 1474.359375 566.46875 C 1359.359375 565.488281 1271.71875 514.21875 1233.628906 425.839844 C 1219.949219 394.339844 1197.738281 310.609375 1284.410156 215.390625 C 1295.640625 202.941406 1305.890625 191.949219 1314.929688 182.441406 C 1377.429688 115.050781 1377.429688 115.050781 1375.71875 36.929688 C 1375.480469 25.949219 1380.359375 15.691406 1388.660156 8.851562 C 1397.210938 2.019531 1408.191406 -0.671875 1418.941406 2.019531 C 1429.429688 4.460938 1678.949219 64.519531 1756.578125 221.5 C 1788.078125 285.46875 1787.351562 355.53125 1753.898438 429.519531 C 1718.261719 507.871094 1600.101562 566.46875 1477.53125 566.46875 Z M 1445.550781 82.570312 C 1442.128906 146.050781 1424.070312 167.539062 1366.449219 230.039062 C 1357.660156 239.558594 1347.648438 250.300781 1336.421875 262.511719 C 1277.339844 327.449219 1290.03125 378.960938 1298.339844 398.011719 C 1335.941406 485.410156 1434.570312 495.660156 1475.101562 496.148438 C 1569.089844 497.621094 1665.53125 453.921875 1689.699219 400.210938 C 1714.359375 345.519531 1715.570312 297.179688 1693.359375 252.5 C 1647.460938 159.480469 1514.648438 105.28125 1445.550781 82.570312 "/>
<path fill-rule="evenodd" fill="rgb(0%, 0%, 0%)" fill-opacity="1" d="M 2580.570312 2329.90625 C 2561.289062 2329.90625 2545.421875 2314.039062 2545.421875 2294.75 L 2545.421875 1764.964844 C 2545.421875 1750.851562 2554.128906 1738.886719 2566.230469 1733.316406 C 2570.671875 1731.273438 2575.398438 1729.808594 2580.570312 1729.808594 C 2599.859375 1729.808594 2615.730469 1745.675781 2615.730469 1764.964844 L 2615.730469 2294.507812 C 2615.730469 2314.039062 2600.101562 2329.90625 2580.570312 2329.90625 Z M 419.421875 2329.90625 C 399.890625 2329.90625 384.261719 2314.039062 384.261719 2294.75 L 384.261719 1764.964844 C 384.261719 1745.675781 402.179688 1751.78125 421.710938 1751.78125 C 441.238281 1751.78125 454.578125 1745.675781 454.578125 1764.964844 L 454.578125 2294.507812 C 454.578125 2314.039062 438.949219 2329.90625 419.421875 2329.90625 "/>
<path fill-rule="evenodd" fill="rgb(0%, 0%, 0%)" fill-opacity="1" d="M 2477.550781 1823.070312 C 2323.488281 1823.070312 2198 1697.578125 2198 1543.519531 L 2198 1354.800781 C 2198 1239.320312 2104.25 1145.570312 1988.769531 1145.570312 C 1873.289062 1145.570312 1779.539062 1239.320312 1779.539062 1354.800781 L 1779.539062 1543.519531 C 1779.539062 1697.578125 1654.050781 1823.070312 1500 1823.070312 C 1345.941406 1823.070312 1220.449219 1697.578125 1220.449219 1543.519531 L 1220.449219 1354.800781 C 1220.449219 1239.320312 1126.460938 1145.570312 1011.21875 1145.570312 C 895.984375 1145.570312 801.992188 1239.320312 801.992188 1354.800781 L 801.992188 1543.519531 C 801.992188 1697.578125 676.5 1823.070312 522.445312 1823.070312 C 368.394531 1823.070312 242.902344 1697.578125 242.902344 1543.519531 L 242.902344 902.410156 C 242.902344 678.53125 425.03125 496.148438 649.15625 496.148438 L 2351.078125 496.148438 C 2575.199219 496.148438 2757.328125 678.28125 2757.328125 902.410156 L 2757.328125 1543.519531 C 2757.328125 1697.578125 2631.839844 1823.070312 2477.550781 1823.070312 Z M 1988.769531 1075.261719 C 2142.820312 1075.261719 2268.320312 1200.75 2268.320312 1354.800781 L 2268.320312 1543.519531 C 2268.320312 1659 2362.070312 1752.757812 2477.550781 1752.757812 C 2593.019531 1752.757812 2686.78125 1659 2686.78125 1543.519531 L 2686.78125 902.410156 C 2686.78125 717.101562 2536.140625 566.46875 2350.839844 566.46875 L 649.15625 566.46875 C 463.851562 566.46875 313.214844 717.101562 313.214844 902.410156 L 313.214844 1543.519531 C 313.214844 1659 406.96875 1752.757812 522.445312 1752.757812 C 637.925781 1752.757812 731.679688 1659 731.679688 1543.519531 L 731.679688 1354.800781 C 731.679688 1200.75 857.167969 1075.261719 1011.21875 1075.261719 C 1165.269531 1075.261719 1290.769531 1200.75 1290.769531 1354.800781 L 1290.769531 1543.519531 C 1290.769531 1659 1384.519531 1752.757812 1500 1752.757812 C 1615.46875 1752.757812 1709.230469 1659 1709.230469 1543.519531 L 1709.230469 1354.800781 C 1709.230469 1200.75 1834.71875 1075.261719 1988.769531 1075.261719 "/>
<path fill-rule="evenodd" fill="rgb(0%, 0%, 0%)" fill-opacity="1" d="M 1122.550781 2149.242188 C 997.3125 2149.242188 843.984375 2130.691406 665.757812 2075.027344 C 580.796875 2048.417969 496.320312 2029.128906 414.535156 2017.65625 C 395.246094 2014.972656 389.605469 1997.84375 392.53125 1978.554688 C 395.21875 1959.265625 405.253906 1945.148438 424.539062 1948.074219 C 509.988281 1960.285156 598.371094 1980.304688 686.992188 2007.890625 C 1185.769531 2163.652344 1480.699219 2012.042969 1483.628906 2010.335938 C 1496.320312 2003.496094 1805.171875 1842.605469 2334.46875 2007.890625 C 2419.429688 2034.5 2503.910156 2053.789062 2585.691406 2065.261719 C 2604.980469 2067.949219 2609.921875 2084.390625 2607.238281 2103.679688 C 2604.550781 2122.96875 2594.96875 2137.527344 2575.691406 2134.84375 C 2490.238281 2122.636719 2401.859375 2102.613281 2313.238281 2074.785156 C 1814.449219 1919.023438 1519.28125 2070.632812 1516.601562 2072.34375 C 1508.050781 2076.980469 1369.378906 2149.242188 1122.550781 2149.242188 "/>
</svg>
