<svg xmlns="http://www.w3.org/2000/svg" id="LOGO_LAYER" width="125.33" height="131.443" version="1.1" viewBox="0 0 125.33 131.443"><defs id="defs1"><style id="style1">.cls-1{fill:#0054a6}.cls-2{fill:#f7941e}.cls-3{fill:#ed1b35}</style></defs><g><path id="path1" d="M95.417 8.686c-5.214 0-12.208-.806-17.262 2.07-10.754 6.12-18.568 18.363-20.008 22.471-1.634 4.663-3.469 2.992-4.092.005-.623-2.987-6.035-13.661-17.325-13.661-5.672 0-17.087 4.975-22.874 18.176-1.395 3.184-2.173 8.006-2.799 12.014l99.66-10.561c.02-.36-.36-30.514-15.3-30.514Z" class="cls-3" style="fill:#d90012"/><path id="path3" d="M56.47 121.183c-4.84 3.125 33.52-40.51 35.886-42.332l-72.604 8.027c-.003 2.579 31.373 29.468 36.718 34.305Z" class="cls-2" style="fill:#f2a800"/><path id="path2" d="M13.51 48.53c-.056.362-1.233-1.241-1.562 0-1.039 3.917-.529 14.848.704 21.139.986 5.029 5.41 14.527 8.205 17.988 1.866 2.308.767-1.897 1.963-.317l66.14-6.95c.478-.564 1.419.247 1.898-.337 9.393-11.465 18.137-27.995 19.879-41.586.125-.981-1.166.956-1.107-.037l-96.12 10.1Z" class="cls-1" style="fill:#0033a0"/><path id="path4" d="M95.36 0C81.94 0 66.07 9.91 56.47 26.38c-2.59-5.95-11.83-12.43-22.8-12.43C24.83 13.95 0 25 0 60.68c0 46.05 46.59 55.51 56.01 69.82.65.99 2.73 1.73 3.53-.62 7.51-22.18 65.79-47.24 65.79-92.37C125.33 12.2 108.8 0 95.38 0h-.02Zm14.33 37.36c-.01.36-.04.72-.06 1.07-.92 15.44-10.12 29.52-20.67 41.96-13.48 15.89-29.15 29.12-32.51 39.1-3.58-7.24-21.87-16.61-33.64-32.15-5.95-7.85-10.23-17.27-10.1-28.79.04-3.66.32-6.98.8-10.02C16.73 27.9 28.9 21.11 35.95 21.11c11.28 0 15.94 8.61 16.71 12.43.76 3.81 5.03 6.86 6.4.61S73.71 8.84 90.02 8.84c14.94 0 20.12 15.41 19.67 28.52Z"/></g></svg>