<svg xmlns="http://www.w3.org/2000/svg" xml:space="preserve" id="Capa_1" width="800" height="800" version="1.1" viewBox="0 0 375.01 375.01"><g><path d="M145.626 340.729c0 10.613 7.573 18.066 18.049 18.066h53.951v-156h-72v137.934zM233.626 358.714c7-2.753 13-9.766 13-17.985V202.795h-13v155.919z" style="fill:#ef8829"/><g><path d="m207.781 39.552.029-.011a.249.249 0 0 0-.029.011zM209.06 39.04l.073-.03-.073.03zM210.285 38.518l.23-.101-.23.101zM232.501 39.744c-.132-.167-.26-.34-.398-.497.137.157.266.33.398.497zM233.257 40.794zM234.319 42.685c.108.222.224.431.326.663-.102-.232-.218-.441-.326-.663zM185.502 36.494c-2.682-2.089-5.449-4.954-8.275-8.838-8.225-6.064-16.297-5.409-16.401-5.397-.235.023-.123.033-.358.033-3.564 0-14.841 1.095-14.841 15.189v28.131c0 .266-.887.532-1.147.808 5.451-5.796 12.816-9.248 21.056-9.718 3.842-.216 7.567.28 11.169 1.44 3.643-7.294 10.929-12.42 19.693-12.92-.493.029-1.002.075-1.486.133-3.02-1.894-6.185-4.728-9.41-8.861zM203.188 45.821c-.042-.01-.085-.015-.127-.024.042.009.085.013.127.024zM206.723 46.993c-.207-.086-.413-.172-.622-.252.208.079.415.166.622.252zM200.191 45.333zM233.916 43.417c-2.786-1.008-5.893-1.132-10.071-.325-1.666.322-3.409 1.185-5.454 2.1-2.523 1.126-5.52 2.501-9.038 3.122-.048-.028-.053-.045-.101-.072 1.445.822 2.844 1.789 4.114 2.922 3.42 3.051 5.838 6.937 7.033 11.25 7.052 3.115 11.242 7.486 13.692 11.94a24.293 24.293 0 0 0-.917-1.532c.492.344.204.697.655 1.055.886-.848 1.796-1.69 1.796-2.483V57.361c.001-5.52-.115-10.299-1.709-13.944zM206.362 40.061l.081-.027-.081.027zM203.441 39.795h.008-.008z" style="fill:#84bd93"/></g><g><path d="M204.455 63.547c.108.139.192.292.291.437-.099-.145-.183-.298-.291-.437zM205.283 64.864c.095.187.173.382.254.576-.081-.194-.157-.389-.254-.576zM205.856 66.311zM154.988 89.177zM212.224 75.344c-4.717-1.619-5.866-4.737-6.001-7.069-.017-.309-.091-.603-.14-.904a8.347 8.347 0 0 0-1.152-.02c-4.642.264-8.171 4.119-8.033 8.773a7.516 7.516 0 0 1-12.177 6.119 15.966 15.966 0 0 0-10.782-3.411c-4.379.251-8.333 2.029-11.135 5.008-2.219 2.361-3.528 5.347-3.835 8.573a126.762 126.762 0 0 1-3.924-3.186c10.153 8.6 21.372 15.509 31.071 15.638 14.267-5.231 26.372-12.785 35.941-20.181-.874-4.444-3.948-7.319-9.833-9.34z" style="fill:#ce593f"/></g><g><path d="M145.1 122.145c5.467-3.677 11.173-6.916 17.368-9.509-5.637-3.15-11.139-7.317-17.201-12.508l.359.003v21.978c0 .012-.508.024-.526.036zM140.549 125.034c.234-.175.483-.338.719-.512-.236.174-.485.337-.719.512zM136.67 128.083c.222-.184.46-.357.684-.54-.223.183-.462.356-.684.54zM133.026 131.264c.208-.191.435-.374.646-.565-.211.19-.438.373-.646.565z" style="fill:#fdd44b"/></g><path d="M145.626 162.605v11.19h101V97.401c-13 10.004-30.707 20.123-51.782 25.495-27.071 6.902-46.218 27.924-49.218 39.709zm35.008-6.967a7.568 7.568 0 0 1-5.313 2.205 7.548 7.548 0 0 1-5.311-2.205 7.562 7.562 0 0 1-2.206-5.312c0-1.985.802-3.919 2.206-5.323a7.557 7.557 0 0 1 5.311-2.195c1.975 0 3.919.802 5.313 2.195a7.566 7.566 0 0 1 2.204 5.323 7.56 7.56 0 0 1-2.204 5.312zm37.515-32.054a7.602 7.602 0 0 1 5.322-2.195 7.59 7.59 0 0 1 5.311 2.195 7.567 7.567 0 0 1 2.206 5.323 7.56 7.56 0 0 1-2.206 5.312 7.604 7.604 0 0 1-5.311 2.205 7.616 7.616 0 0 1-5.322-2.205 7.594 7.594 0 0 1-2.195-5.312 7.6 7.6 0 0 1 2.195-5.323zm-16.487 23.815a7.538 7.538 0 0 1 5.311-2.205c1.985 0 3.919.801 5.313 2.205a7.568 7.568 0 0 1 2.204 5.321 7.563 7.563 0 0 1-2.204 5.312 7.56 7.56 0 0 1-5.313 2.195 7.573 7.573 0 0 1-5.311-2.195 7.565 7.565 0 0 1-2.206-5.312 7.57 7.57 0 0 1 2.206-5.321z" style="fill:#fdd44b"/><path d="M223.472 121.39a7.605 7.605 0 0 0-5.323 2.195 7.6 7.6 0 0 0-2.195 5.323c0 1.974.801 3.908 2.195 5.312a7.614 7.614 0 0 0 5.323 2.205 7.604 7.604 0 0 0 5.311-2.205 7.566 7.566 0 0 0 2.206-5.312 7.573 7.573 0 0 0-2.206-5.323 7.59 7.59 0 0 0-5.311-2.195zM175.321 142.809a7.557 7.557 0 0 0-5.311 2.195 7.57 7.57 0 0 0-2.206 5.323c0 1.974.803 3.908 2.206 5.312a7.548 7.548 0 0 0 5.311 2.205 7.57 7.57 0 0 0 5.313-2.205 7.56 7.56 0 0 0 2.204-5.312 7.57 7.57 0 0 0-2.204-5.323 7.577 7.577 0 0 0-5.313-2.195zM206.973 145.194a7.538 7.538 0 0 0-5.311 2.205 7.57 7.57 0 0 0-2.206 5.322c0 1.974.803 3.909 2.206 5.312a7.57 7.57 0 0 0 5.311 2.195 7.56 7.56 0 0 0 5.313-2.195 7.563 7.563 0 0 0 2.204-5.312 7.568 7.568 0 0 0-2.204-5.322 7.526 7.526 0 0 0-5.313-2.205z" style="fill:#3f2d20"/><path d="M255.237 57.869a7.455 7.455 0 0 0-3.064-.324v-.184c0-13.91-4.077-24.625-11.789-30.987-4.618-3.809-12.89-7.814-26.079-5.263-3.361.65-6.313 1.968-8.917 3.132-6.639 2.964-9.123 4.072-16.064-5.507C175.469-.389 156.069-.146 152.801.037c-17.657.119-29.965 12.513-29.965 30.222V57.54a7.454 7.454 0 0 0-3.057.321 7.516 7.516 0 0 0-5.171 7.141v275.726c0 18.903 15.267 34.281 34.033 34.281h77.728c18.765 0 34.033-15.379 34.033-34.281V65.003a7.517 7.517 0 0 0-5.165-7.134zm-9.87 282.86c0 8.219-5.122 15.232-12.294 17.985V189.126h12.294v151.603zM137.871 30.259c0-14.094 11.625-15.189 15.189-15.189.235 0 .472-.011.707-.033.134-.015 13.512-1.107 23.385 12.52 14.103 19.464 26.79 13.797 34.369 10.413 2.046-.914 3.978-1.777 5.644-2.1 5.971-1.154 10.563-.448 13.654 2.101 4.017 3.313 6.321 10.381 6.321 19.39v14.034a153.66 153.66 0 0 1-3.042 2.96c-2.45-4.454-6.634-8.826-13.686-11.94-1.195-4.314-3.601-8.199-7.021-11.25-4.699-4.192-10.753-6.309-17.037-5.943-8.764.5-16.093 5.626-19.736 12.92a31.045 31.045 0 0 0-11.256-1.44c-8.239.471-15.779 3.922-21.23 9.718a29.553 29.553 0 0 0-5.033 7.28c-.416-.457-.826-.911-1.227-1.362V30.259zm13.322 55.587c.202-3.439 1.545-6.631 3.891-9.127 2.801-2.979 6.756-4.757 11.135-5.008 3.892-.209 7.721.99 10.782 3.411a7.516 7.516 0 0 0 12.177-6.119 8.485 8.485 0 0 1 8.033-8.773 8.447 8.447 0 0 1 6.171 2.153 8.485 8.485 0 0 1 2.841 5.891c.135 2.331 1.284 5.45 6.001 7.069 5.884 2.021 8.959 4.897 9.832 9.339-9.57 7.396-21.674 14.95-35.941 20.181-10.943-.145-23.825-8.918-34.922-19.017zm-12.661 8.738c8.266 7.84 16.178 13.851 23.699 18.053-12.509 5.237-24.002 13.089-32.588 21.915V85.583a200.7 200.7 0 0 0 8.889 9.001zm-8.889 68.021c2.143-11.785 21.991-32.806 49.063-39.708 30.494-7.774 53.301-25.485 66.661-38.404v89.599H129.643v-11.487zm0 26.521h88.396v170.85h-69.398c-10.476 0-18.998-8.634-18.998-19.247V189.126z" style="fill:#3f2d20"/></g></svg>