<svg xmlns="http://www.w3.org/2000/svg" id="Flag of the Bangladesh" width="900" height="650" version="1.0"><path id="Green Background" d="M0 0h900v650H0z" style="fill:#ffdc00;fill-opacity:1"/><path id="flowRoot2178" d="m676.308 543.164-4.38 19.723h-64.292l6.184-23.53h54.5c2.49-8.381 3.736-18.531 3.736-30.45.086-11.842-2.598-21.416-8.052-28.72-5.455-7.306-13.25-10.92-23.385-10.843-13.571 0-26.133 7.709-37.686 23.126-11.552 15.418-17.415 38.89-17.586 70.417h-8.633c-.343-3.921-.515-7.266-.515-10.035 0-31.988 9.964-57.786 29.89-77.395 0-2.922-.858-5.017-2.576-6.286-1.718-1.269-5.712-2.518-11.982-3.749-10.823-2.076-16.234-7.228-16.234-15.456 0-6.305 1.804-12.303 5.411-17.993h3.48c1.545 4.69 4.852 7.382 9.92 8.074l7.988 1.038c7.215.923 10.822 4.19 10.822 9.804 0 1.077-.171 2.691-.515 4.844-.43 2.23-.644 3.884-.644 4.96 0 3.153 1.331 5.498 3.994 7.036 14.258-7.151 22.032-16.532 23.32-28.144 13.829 2.077 24.286 9.036 31.373 20.877 7.086 11.843 10.629 27.145 10.629 45.907 0 10.458-1.59 22.723-4.767 36.795zm-166.59 19.723h-72.022c-2.491-11.842-5.197-22.453-8.117-31.834-4.123-13.457-6.185-24.415-6.185-32.873 0-11.458 1.761-21.8 5.283-31.028-10.737-2.845-16.105-8.074-16.105-15.686 0-7.228 2.147-13.726 6.442-19.493h3.479c.859 2.845 2.19 4.844 3.994 5.998 1.803 1.153 5.583 2.268 11.338 3.345 8.589 1.614 12.884 7.574 12.884 17.878 0 2.614-.258 4.69-.773 6.228-5.498 1.615-10.565 2.423-15.204 2.422-1.975 7.92-2.963 16.764-2.963 26.53 0 12.533 4.982 27.528 14.946 44.983l3.994-.115c11.681-19.224 21.988-43.407 30.921-72.55-10.65-3.538-15.976-9.151-15.976-16.841 0-6.613 2.19-12.572 6.57-17.878h3.48c1.03 4.306 3.435 6.882 7.215 7.728l8.117 1.615c8.675 1.768 13.012 7.074 13.012 15.917 0 3.153-.386 5.883-1.16 8.19-3.864 1.076-8.674 1.614-14.43 1.614-6.441 26.375-15.76 50.482-27.958 72.32h40.972c3.95-11.688 14.86-28.759 32.725-51.212 4.552-5.613 6.828-10.38 6.829-14.303 0-3.998-2.32-6.69-6.958-8.074l-1.675-.461c-8.59-2.614-12.884-7.151-12.884-13.61 0-7.306 2.491-13.88 7.473-19.724h3.35c.601 3.69 2.791 6.151 6.57 7.382l7.216 2.191c8.16 2.538 12.24 7.805 12.24 15.802 0 6.92-3.995 15.937-11.983 27.048-7.988 11.112-15.031 23.3-21.13 36.564-6.098 13.265-10.607 27.24-13.528 41.927zm-137.215-55.134-3.608-3.69c9.105-6.075 13.657-14.534 13.657-25.376 0-7.767-6.399-11.88-19.197-12.342-14.258-.461-21.388-5.882-21.388-16.263 0-5.383 2.019-11.42 6.056-18.11h3.479c.859 5.23 4.767 8.113 11.724 8.651l11.725.693c11.51.769 17.264 7.881 17.264 21.338v8.65c0 18.225-6.57 30.375-19.712 36.45zm-72.537 58.018-2.062-2.422c2.233-3 3.35-7.036 3.35-12.111 0-4.537-.344-11.342-1.03-20.416-.688-9.15-1.032-15.994-1.031-20.531 0-18.686 4.981-33.334 14.945-43.946h-65.193c-8.418 5.613-12.627 14.84-12.627 27.682 0 5.152.86 12.957 2.577 23.415 1.718 10.381 2.577 18.186 2.577 23.415 0 14.994-6.399 23.3-19.197 24.914l-1.675-2.422c3.092-4.306 4.38-11.112 3.865-20.416l-1.675-29.182c-1.03-20.146 5.197-35.948 18.682-47.406-8.59-.077-14.494-1.173-17.715-3.287-3.221-2.115-4.832-5.825-4.832-11.13 0-7.537 2.62-13.842 7.86-18.917h3.478c1.374 5.383 5.626 8.074 12.755 8.074h62.23c6.614 0 11.059 1.057 13.335 3.172 2.276 2.115 3.371 5.632 3.285 10.554 0 6.382-1.653 12.11-4.96 17.186-3.307 5.075-4.96 12.034-4.96 20.877 0 5.537 1.03 13.841 3.092 24.914 1.975 11.073 2.963 19.378 2.963 24.914 0 13.765-6.012 21.454-18.037 23.069z" style="font-size:56px;font-style:normal;font-variant:normal;font-weight:400;font-stretch:normal;text-align:start;line-height:125%;writing-mode:lr-tb;text-anchor:start;fill:#e30000;fill-opacity:1;stroke-opacity:1;font-family:SBL Hebrew"/><path id="path2384" d="M350.518 397.185c-18.565-2.703-45.606-8.272-60.09-12.376l-26.334-7.462-.26-13.006c-.32-16.1-14.17-47.337-23.648-53.334-3.876-2.452-7.048-6.056-7.048-8.008 0-1.952-3.687-6.97-8.194-11.15-21.83-20.252-24.582-23.262-24.582-26.874 0-2.135-3.441-5.545-7.647-7.578-5.462-2.64-7.168-5.957-5.972-11.61.926-4.378-.538-9.57-3.279-11.626-6.551-4.911-6.333-20.807.355-25.821 3.391-2.543 4.585-7.245 3.306-13.024-2.386-10.777 6.092-19.99 18.395-19.99 4.554 0 11.364-3.08 15.134-6.842 5.7-5.69 9.473-6.487 22.415-4.733 10.905 1.477 15.562.937 15.562-1.804 0-2.693 4.35-3.284 13.958-1.896 11.972 1.73 15.123.806 22.147-6.492 6.143-6.382 10.593-8.092 17.814-6.846 7.097 1.226 11.843-.5 18.069-6.568 6.444-6.282 10.646-7.732 17.741-6.123 5.233 1.186 11.537.429 14.42-1.733 2.975-2.23 9.828-2.992 16.339-1.815 6.168 1.114 14.534.421 18.591-1.54 5.31-2.567 8.492-2.56 11.356.028 2.188 1.977 7.257 3.595 11.263 3.595 5.665 0 6.312-.878 2.913-3.948-2.403-2.172-4.37-7.057-4.37-10.857 0-3.8-1.879-8.606-4.175-10.68-3.139-2.835-.653-5.14 10.015-9.284 7.805-3.033 17.058-6.826 20.563-8.43 3.99-1.825 6.374-1.675 6.374.402 0 1.825 3.732 3.318 8.294 3.318s11.849 2.249 16.193 4.998c7.515 4.755 7.655 5.73 2.88 20.064-4.954 14.87-4.916 15.038 2.926 12.858 4.37-1.214 10.404-2.071 13.409-1.904 3.004.166 12.355.309 20.778.315 8.424.007 16.365 1.545 17.646 3.418 1.306 1.909 6.933 2.491 12.807 1.326 8.164-1.62 12.447-.3 19.398 5.98 6.295 5.686 11.63 7.591 18.124 6.47 6.68-1.154 11.616.763 18.007 6.992 7.174 6.993 10.917 8.2 20.208 6.522 6.752-1.22 13.523-.471 16.6 1.835 3.133 2.35 10.047 3.073 17.421 1.823 9.614-1.629 13.685-.616 19.05 4.74 3.753 3.745 11.285 6.81 16.738 6.81 12.884 0 19.33 7.338 17.318 19.715-1.104 6.796.48 11.612 5.045 15.344 8.072 6.6 8.571 15.336 1.19 20.87-3.004 2.252-5.462 8.126-5.462 13.052s-3.278 11.636-7.284 14.911c-4.006 3.275-7.283 7.894-7.283 10.264 0 2.37-3.278 5.894-7.284 7.83-4.006 1.938-7.284 5.639-7.284 8.226 0 2.586-3.166 6.234-7.037 8.105-3.87 1.871-8.05 6.289-9.29 9.817-1.24 3.528-5.059 7.22-8.487 8.202-7.242 2.077-19.304 29.78-22.288 51.188-2.03 14.577-2.37 14.897-22.093 20.844-41.147 12.408-70.193 15.73-149.315 17.074-58.03.987-87.038.06-112.056-3.582zm66.533-33.13c75.724-1.282 132.35-.663 161.684 1.767 44.343 3.675 52.436 3.181 45.658-2.785-19.103-16.813-351.195-14.724-351.195 2.21 0 3.837 2.966 4.454 13.657 2.842 7.512-1.133 66.1-2.949 130.196-4.034zm-107.434-31.463c63.415-8.782 267.315-4.94 315.311 5.943 6.312 1.431 8.813.633 8.813-2.811 0-10.747-123.662-20.712-220.576-17.774-56.276 1.705-146.109 9.872-150.306 13.664-3.28 2.962 4.297 8.307 9.735 6.87 3.337-.883 19.997-3.534 37.023-5.892zm17.906-21.209c.834-.645-3.472-1.172-9.57-1.172-6.097 0-13.126-2.22-15.62-4.935-5.374-5.85-10.925-6.452-10.925-1.185 0 6.831 12.414 12.248 23.672 10.328 6.009-1.025 11.608-2.391 12.443-3.036zm271.88.708c5.803-5.242 6.914-11.75 2.007-11.75-1.758 0-5.236 2.22-7.73 4.935-2.493 2.714-8.84 5.082-14.103 5.263l-9.569.328 9.105 2.634c13.29 3.845 14.571 3.756 20.29-1.41zm-226.054-1.88c1.298-1.898-2.12-3.29-8.08-3.29-5.68 0-13.864-2.237-18.184-4.97-5.084-3.217-8.673-3.775-10.172-1.584-1.274 1.863 3.125 5.522 9.776 8.131 14.365 5.637 23.57 6.228 26.66 1.713zm174.925-1.477c6.946-2.622 12.63-6.361 12.63-8.31 0-2.196-4.084-1.634-10.745 1.478-5.91 2.76-14.104 5.019-18.21 5.019-4.105 0-7.464 1.48-7.464 3.29 0 4.646 9.057 4.084 23.79-1.477zm-122.118-1.813c0-1.81-5.736-3.29-12.747-3.29-7.01 0-12.746 1.48-12.746 3.29s5.736 3.29 12.746 3.29c7.01 0 12.747-1.48 12.747-3.29zm69.195 0c0-1.81-4.82-3.29-10.71-3.29-5.892 0-11.724 1.48-12.962 3.29-1.34 1.958 2.997 3.29 10.71 3.29 7.129 0 12.962-1.48 12.962-3.29zm-217.548-5.257c3.544-3.201-1.322-11.193-6.815-11.193-2.79 0-5.073 1.974-5.073 4.387 0 7.286 6.951 11.266 11.888 6.806zm352.027-2.675c2.915-3.173 3.056-5.316.446-6.774-5.086-2.84-11.103.779-11.103 6.675 0 6.04 5.154 6.089 10.657.099zm-249.798-5.799c2.57-8.874.115-12.845-6.518-10.545-6.004 2.081-10.14 10.473-7.246 14.703 3.75 5.48 11.667 3.088 13.764-4.158zm37.02-.99c0-6.581-10.911-14.353-14.985-10.673-3.947 3.565 5.358 19.52 10.484 17.976 2.475-.745 4.5-4.031 4.5-7.302zm79.885-8.651c-3.588-5.244-12.147-3.13-16.402 4.05-3.233 5.459-3.06 7.627.783 9.852 5.525 3.198 19.07-8.858 15.62-13.902zm34.832 10.87c0-6.102-6.507-13.817-11.654-13.817-3.514 0-3.914 14.448-.485 17.546 4.795 4.332 12.139 2.076 12.139-3.729zm-172.595-12.413c2.592-9.329-2.797-16.66-9.497-12.919-3.08 1.72-3.168 3.389-.317 5.964 5.568 5.03 4.92 8.84-1.504 8.84-3.004 0-5.463 1.481-5.463 3.29 0 1.81 3.247 3.29 7.215 3.29 4.712 0 8.03-2.935 9.566-8.465zm194.446 5.528c0-1.616-2.643-3.855-5.873-4.974-4.428-1.535-4.884-3.113-1.852-6.412 2.21-2.407 2.942-5.35 1.624-6.541-5.412-4.889-8.466-1.515-8.466 9.35 0 9.321 1.387 11.514 7.283 11.514 4.006 0 7.284-1.322 7.284-2.937zm-116.539-5.561c0-5.81-7.84-4.798-10.09 1.302-.794 2.148 1.153 3.907 4.324 3.907s5.766-2.345 5.766-5.21zm32.777.274c0-2.714-1.542-4.935-3.427-4.935-4.592 0-7.881 5.137-4.972 7.766 4.102 3.705 8.399 2.256 8.399-2.831zm-160.241-3.484c0-2.821-1.666-4.2-3.701-3.063-2.036 1.137-2.759 3.445-1.606 5.129 3.122 4.563 5.307 3.712 5.307-2.066zm25.493-1.451c0-1.81-1.64-3.29-3.642-3.29-2.003 0-3.642 1.48-3.642 3.29s1.639 3.29 3.642 3.29 3.642-1.48 3.642-3.29zm233.077 0c0-1.81-1.638-3.29-3.641-3.29s-3.642 1.48-3.642 3.29 1.639 3.29 3.642 3.29 3.641-1.48 3.641-3.29zm25.493 0c0-1.81-1.639-3.29-3.642-3.29s-3.641 1.48-3.641 3.29 1.638 3.29 3.641 3.29 3.642-1.48 3.642-3.29zm-294.989-14.306c0-9.774-1.621-11.59-14.395-16.123l-14.396-5.109.739-19.242c.737-19.215.723-19.244-10.38-20.225-11.761-1.04-30.763 9.521-30.763 17.097 0 2.267 4.097 7.6 9.105 11.85 10.49 8.902 11.634 18.341 3.237 26.723-5.483 5.473-5.064 6.175 6.373 10.683 6.732 2.654 20.845 4.946 31.36 5.094l19.12.268v-11.016zm349.798 5.997c12.083-5.645 13.208-8.778 5.282-14.72-7.998-5.996-6.772-10.796 5.462-21.385 13.223-11.444 13.35-12.914 1.987-23.178-9.727-8.788-32.845-11.346-35.804-3.963-.907 2.262-.838 11.677.153 20.924 1.746 16.293 1.48 16.884-8.65 19.181-14.876 3.373-19.597 7.876-19.597 18.693 0 9.292.373 9.467 20.211 9.467 11.116 0 25.046-2.259 30.956-5.02zm-240.543-6.496c0-5.117 2.064-8.224 5.463-8.224 8.35 0 6.687-3.525-8.13-17.233l-13.592-12.574 8.14-13.883c9.983-17.028 10.562-23.762 1.746-20.333-3.505 1.364-16.616 3.175-29.134 4.025-25.098 1.705-27.371 4.469-15.185 18.463l7.576 8.702-9.397 10.089c-11.564 12.414-11.573 13.17-.293 22.744 5.007 4.25 9.104 9.689 9.104 12.088 0 3.137 6.133 4.361 21.851 4.361 20.88 0 21.851-.365 21.851-8.225zm17.3 4.113c-1.72-4.658-7.576-4.146-9.409.822-.668 1.81 1.518 3.29 4.856 3.29s5.387-1.85 4.552-4.112zm55.537.822c0-1.81-1.639-3.29-3.642-3.29s-3.641 1.48-3.641 3.29 1.638 3.29 3.641 3.29 3.642-1.48 3.642-3.29zm54.628-2.255c0-3.05 3.632-9.038 8.072-13.308 6.68-6.424 7.304-8.729 3.616-13.371-12.155-15.298-12.896-19.634-4.921-28.793 9.905-11.376 7.322-14.65-11.558-14.65-8.408 0-20.603-1.378-27.1-3.06-10.76-2.788-11.8-2.422-11.695 4.112.063 3.945 2.522 10.046 5.462 13.558 8.516 10.17 6.49 20.395-5.578 28.158-10.48 6.741-14.82 16.45-7.353 16.45 1.965 0 4.6 3.7 5.857 8.224 2.114 7.61 3.892 8.225 23.742 8.225 17.694 0 21.456-.972 21.456-5.545zm-213.552-5.97c1.153-2.714 4.43-4.934 7.284-4.934 2.853 0 6.13 2.22 7.284 4.934 2.57 6.05 13.25 6.58 13.25.658 0-12.882-32.905-17.67-39.932-5.809-5.203 8.782-4.799 10.086 3.124 10.086 3.792 0 7.837-2.22 8.99-4.935zm239.045 0c0-2.714 3.102-4.934 6.894-4.934 3.792 0 7.837 2.22 8.99 4.934 1.153 2.715 4.606 4.935 7.673 4.935 5.987 0 6.879-2.978 3.367-11.245-2.948-6.941-28.097-6.965-35.769-.034-7.779 7.027-7.19 11.28 1.561 11.28 4.047 0 7.284-2.194 7.284-4.936zm-96.41-5.079c3.333-4.871-5.133-13.015-13.53-13.015-3.893 0-10.354 1.584-14.357 3.52-5.813 2.81-6.409 4.467-2.957 8.224 4.994 5.436 27.364 6.358 30.844 1.271zm-143.952-20.582c0-4.74-7.115-12.172-11.654-12.172-1.602 0-2.913 3.7-2.913 8.224 0 6.032 1.942 8.225 7.284 8.225 4.006 0 7.283-1.924 7.283-4.277zm271.425.83c1.297-1.896 1.36-5.799.14-8.673-1.985-4.67-2.985-4.6-9.428.668-3.964 3.24-7.208 7.143-7.208 8.672 0 3.99 13.688 3.437 16.496-.667zm-253.215-8.284c0-4.282-7.809-14.588-11.054-14.588-3.972 0-4.802 10.9-1.086 14.256 2.955 2.67 12.14 2.92 12.14.332zm234.132-4.715c2.294-7.925-4.219-12.559-8.69-6.182-4.756 6.783-3.937 12.758 1.748 12.758 2.77 0 5.894-2.959 6.942-6.576zm-277.835.38c0-1.598-3.277-3.68-7.283-4.626-4.734-1.119-7.284-.101-7.284 2.906 0 2.545 3.278 4.627 7.284 4.627s7.283-1.308 7.283-2.907zm59.221.95c1.19-1.075-.988-6.627-4.842-12.336-3.854-5.71-7.014-12.303-7.021-14.651-.027-8.562 18.984-20.086 39.462-23.92 11.338-2.124 23.847-5.902 27.798-8.397 8.818-5.57 9.798-5.583-24.412.33-32.707 5.654-41.08 9.622-46.848 22.203-7.743 16.887 5.05 46.54 15.863 36.772zm111.035-2.156c-.902-2.446-7.91-4.112-17.298-4.112-9.388 0-16.396 1.666-17.299 4.112-1.083 2.936 3.864 4.113 17.299 4.113 13.434 0 18.382-1.177 17.298-4.113zm91.372-4.267c5.851-11.6 5.284-28.27-1.247-36.695-5.708-7.361-18.992-12.13-43.691-15.687-8.012-1.153-17.845-2.835-21.851-3.737-7.082-1.595-7.094-1.503-.419 3.33 3.776 2.734 14.062 5.945 22.858 7.137 19.854 2.69 39.085 13.995 40.663 23.903.656 4.114-1.46 11.137-4.703 15.607-5.572 7.683-4.95 14.522 1.322 14.522 1.563 0 4.744-3.771 7.068-8.38zm61.586 4.267c-.835-2.262-2.61-3.742-3.946-3.29-1.335.453-4.886.823-7.89.823-3.005 0-5.463 1.48-5.463 3.29s4.234 3.29 9.408 3.29c5.908 0 8.844-1.53 7.89-4.113zm-196.367-12.29c1.198-11.37 1.173-11.39-6.373-5.22-9.457 7.73-10.24 19.27-1.203 17.725 4.306-.737 6.763-4.793 7.576-12.505zm69.697 9c-.162-5.76-8.965-15.627-13.943-15.627-5.478 0-5.328 10.78.22 15.792 5.714 5.162 13.87 5.064 13.723-.165zM234.4 199.841c12.94-11.351 16.643-17.936 10.088-17.936-1.769 0-4.07 2.948-5.113 6.552-1.043 3.603-6.96 9.155-13.148 12.337-6.189 3.182-11.262 6.896-11.275 8.253-.048 5.198 6.637 2.034 19.448-9.206zm81.467 6.298c1.757-4.824-9.45-15-13.827-12.555-1.842 1.028-3.349 5.586-3.349 10.128 0 6.607 1.583 8.05 7.91 7.208 4.35-.578 8.52-2.73 9.266-4.781zm281.455-4.495c0-10.513-3.113-12.321-10.197-5.921-7.04 6.359-5.3 15.791 2.913 15.791 5.666 0 7.284-2.193 7.284-9.87zm85.212 7.122c1.034-1.511-3.645-5.128-10.399-8.037-6.754-2.91-13.357-8.357-14.674-12.105-1.316-3.748-4.063-5.883-6.104-4.743-2.105 1.175 2.266 7.599 10.106 14.852 14.161 13.1 17.79 14.829 21.071 10.033zm-218.139-13.701c0-5.811-26.165-8.934-31.847-3.801-6.682 6.036 1.39 10.74 16.703 9.732 10.543-.694 15.144-2.496 15.144-5.931zm-240.361-6.032c0-6.44-7.097-5.894-8.492.653-.852 3.996.4 5.622 3.592 4.66 2.695-.81 4.9-3.202 4.9-5.313zm457.05 1.097c0-2.714-2.458-4.935-5.462-4.935-5.687 0-7.226 3.89-3.035 7.676 4.19 3.786 8.497 2.396 8.497-2.741zm-251.342-22.013c.03-4.87 1.694-9.768 3.697-10.886 5.445-3.04 4.392-11.515-1.43-11.515-6.817 0-9.506 7.341-9.44 25.766.041 11.128 1.029 13.999 3.587 10.423 1.941-2.714 3.555-8.919 3.586-13.788zm42.269-17.87c-1.059-2.492-3.615-4.53-5.68-4.53-4.822 0-4.915 12.124-.115 14.804 2.003 1.118 3.937 7.497 4.298 14.176.541 10.004.9 9.32 2.039-3.889.76-8.817.516-18.07-.542-20.561zm-142.492 23.148c3.395-4.68 5.273-9.323 4.174-10.316-3.3-2.98-20.434 8.73-20.434 13.967 0 7.763 9.534 5.622 16.26-3.651zm253.236 3.651c0-5.365-17.173-16.913-20.578-13.838-1.177 1.064.513 4.331 3.756 7.26 3.243 2.93 5.896 6.702 5.896 8.382 0 1.68 2.458 3.055 5.463 3.055s5.463-2.187 5.463-4.859zm-123.823-6.656c0-3.29-3.642-4.934-10.925-4.934-7.284 0-10.926 1.645-10.926 4.934 0 3.29 3.642 4.935 10.926 4.935 7.283 0 10.925-1.645 10.925-4.935zm-8.782-23.835c-3.979-3.594-6.707 2.122-3.85 8.067 2.708 5.636 2.904 5.631 4.413-.116.869-3.308.615-6.886-.563-7.95zm19.708-22.683c0-3.635-12.469-10.84-18.949-10.95-8.139-.137-24.753 6.771-24.753 10.293 0 1.519 9.833 2.762 21.85 2.762 12.019 0 21.852-.947 21.852-2.105zm-5.463-19.28c0-1.809-3.854-3.782-8.565-4.384-12.105-1.548-26.766 2.296-24.026 6.3 2.914 4.26 32.591 2.515 32.591-1.915z" style="fill:#070679;fill-opacity:1;stroke:none;stroke-width:4;stroke-miterlimit:4;stroke-dasharray:none;stroke-opacity:1"/></svg>