<svg xmlns="http://www.w3.org/2000/svg" xml:space="preserve" id="Layer_1" width="400" height="400" x="0" y="0" version="1.1" viewBox="0 0 400 400"><g><path fill="none" d="m302.5 361.8.016.616c-2.039.588-4.113 1.078-6.098 1.813-.738.274-1.27 1.119-1.893 1.705.875.396 1.783 1.174 2.623 1.105 1.631-.13 3.39-.439 4.793-1.221 1.629-.905 3.912-2.238 4.144-3.67.322-2-1.918-3.114-4.03-3.455-.472-.075-.902-.379-1.369-.517-11.617-3.405-23.33-6.518-34.812-10.329-5.444-1.809-10.962-4.43-13.873-9.871-1.021-1.91-.69-4.603-.739-6.941-.02-.911.617-1.838.955-2.756-1.119-.226-2.298-.797-3.351-.62-8.638 1.448-17.292.726-25.706-.874-8.492-1.614-16.9-4.123-25.028-7.105-13.407-4.919-25.29-12.572-35.651-22.438-6.868-6.54-12.484-14.096-17.221-22.287 4.756-5.28 6.059-7.426 6.506-10.951.954-7.529-2.317-13.834-6.016-19.938-2.362-3.896-5.053-7.596-7.98-11.951 5.043 3.887 9.506 7.388 14.034 10.801 11.132 8.393 22.923 15.693 35.566 21.618 10.685 5.005 21.532 9.602 33.103 12.099 10.338 2.23 20.793 3.421 31.336 1.314 1.946-.389 3.475-.674 5.066 1.266 4.064 4.948 8.509 9.584 12.715 14.42 5.188 5.963 10.491 11.842 15.354 18.063 3.602 4.604.117 9.797-3.709 11.406-2.291.963-4.567 2.213-6.969 2.598-2.957.474-6.006 3.158-9.105.188-.184-.174-1.307.196-1.48.559-.24.498-.234 1.447.096 1.82.769.869 1.822 1.479 2.714 2.248 10.997 9.51 23.967 15.531 37.165 21.199 4.909 2.107 9.631 4.653 15.15 7.348-1.884 1.438-2.898 2.604-4.178 3.114-4.439 1.776-8.994 3.269-13.443 5.021-.754.298-1.211 1.354-1.805 2.059.865.284 1.875 1.008 2.573.78 4.455-1.454 8.913-2.95 13.224-4.775 2.525-1.069 5.651-2.14 5.683-5.614.03-3.512-3.082-4.506-5.62-5.718-9.647-4.608-19.434-8.942-28.955-13.793-5.479-2.79-10.549-6.377-16.109-9.793 4.292-1.558 7.924-2.745 11.453-4.183 7.553-3.076 10.348-10.295 5.316-16.988-4.836-6.441-10.498-12.271-15.906-18.271-3.622-4.019-7.434-7.867-11.516-12.168 1.844-.399 3.033-.813 4.244-.896 8.981-.639 17.965-1.264 26.955-1.786 8.119-.474 16.248-1.151 24.371-1.125 9.724.031 19.484.296 29.15 1.252 7.271.72 11.461 2.386 13.268 11.64 2.228 11.416 8.192 20.526 17.435 27.504.604.455 1.671.298 2.522.425-.146-.853-.144-1.771-.482-2.535-.264-.595-.97-.983-1.449-1.493-2.83-2.992-5.77-5.893-8.45-9.014-4.384-5.102-5.631-11.534-7.151-17.823-1.052-4.349-3.355-7.619-7.522-9.619-6.34-3.043-13.222-2.978-19.923-3.354-6.93-.393-13.918.201-20.877.481-8.228.331-16.449.759-24.672 1.199-8.549.46-17.094.987-25.871 1.499 5.564-2.993 9.908-6.971 11.793-13.043.839-2.704 2.936-4.176 4.931-5.876 3.615-3.08 7.999-6.121 8.685-10.938.762-5.356.075-10.962-.343-16.431-.29-3.797-1.405-7.526-1.774-11.321-.813-8.369 1.076-16.508 2.567-24.656 1.169-6.395.097-12.417-3.245-17.845-3.381-5.488-7.27-10.663-10.733-15.683 1.991-1.606 4.389-3.191 6.354-5.201 3.976-4.068 6.097-9.012 4.998-14.758-1.185-6.201-5.435-10.234-10.747-13.05-9.263-4.91-19.25-7.413-29.686-8.176-1.348-.099-2.695-.176-4.043-.263.191 1.205.385 2.409.574 3.614.015.097 0 .198 0 .297.021 2.948-.1 5.905.09 8.842.544 8.433 2.488 16.45 7.766 23.299 4.723 6.129 11.208 8.238 18.573 7.026 2.114-.349 3.208.036 4.254 1.414 2.844 3.746 5.776 7.442 8.349 11.373 3.936 6.015 6.065 12.464 4.336 19.855-1.113 4.761-1.842 9.632-2.431 14.492-1.173 9.688 1.747 19.031 2.901 28.506.812 6.651-3.272 15.34-9.653 17.557l-.781-4.631-.819-.242c-.575 1.562-1.571 3.104-1.646 4.689-.221 4.657-1.336 8.914-4.327 12.564-5.686 6.936-13.684 8.736-21.962 9.341-14.104 1.03-27.662-2.207-40.66-7.146-12.887-4.897-25.483-10.73-36.935-18.51-9.328-6.337-18.214-13.33-27.162-20.209-1.924-1.478-2.948-1.545-3.868.465-5.074-5.318-10.155-10.735-15.38-16.011-.683-.688-2.107-.645-3.188-.938.319 1.008.36 2.258.999 2.984 6.531 7.443 13.457 14.563 19.663 22.264 4.646 5.766 8.617 12.146 10.138 19.643 1.04 5.126.149 10.186-4.315 12.887-4.26 2.576-9.473 3.562-14.219 5.371-.911.348-1.601 1.274-2.394 1.934.919.353 1.935 1.15 2.742.979 4.022-.854 7.989-1.966 11.921-2.974 23.121 37.211 57.931 53.359 101.194 55.066-7.239 4.633-10.537 11.521-12.847 19.072-1.242 4.063-4.18 6.27-8.278 6.887-4.462.674-8.937 1.549-13.426 1.695-8.291.271-16.596.092-24.896.061-1.074-.004-2.144-.308-3.221-.365-5.349-.288-10.699-.592-16.052-.734-.572-.016-1.171.98-1.757 1.508.628.486 1.226 1.35 1.889 1.402 6.216.499 12.442 1.172 18.667 1.195 11.159.039 22.361.188 33.466-.711 8.083-.653 15.289-1.894 17.503-13.227.094-.474.344-.916.52-1.374 2.391-6.262 6.396-11.104 12.435-14.364.279 5.806 2.353 9.182 6.999 12.467 7.088 5.016 15.111 7.783 23.35 10.058 8.164 2.245 16.369 4.389 24.56 6.582zM263.563 65.959l-.682.565c-2.564-1.786-5.214-3.465-7.683-5.377-10.571-8.188-21.329-16.072-34.181-20.398-9.521-3.206-19.009-3.818-28.396.761-1.472.718-3.418.981-5.053.762-9.168-1.231-18.166-.452-26.666 3.037-7.735 3.175-15.119 7.198-22.701 10.754-2.695 1.264-5.111 2.891-8.469 2.93-6.078.071-12.295.326-18.186 1.675-11.633 2.666-18.235 8.598-20.385 21.21-1.216 7.135-1.797 14.408-3.476 21.423-1.14 4.766-3.246 9.453-5.733 13.7-2.484 4.241-6.443 7.621-8.915 11.867-3.074 5.284-5.32 11.053-7.835 16.652-.401.893-.334 1.995-.484 3 1-.505 2.472-.75 2.92-1.561 2.168-3.921 4.257-7.91 5.997-12.035 1.748-4.146 2.903-8.683 6.991-11.197 2.718-1.671 5.846-2.663 8.718-4.104.892-.447 1.545-1.37 2.309-2.075-.97-.197-1.934-.504-2.912-.56-.825-.045-1.666.202-2.747.354 1.352-3.169 3.159-6.063 3.805-9.196 1.398-6.782 2.128-13.698 3.272-20.535.872-5.208 1.58-10.473 4.656-15.041 4.313-6.404 11.002-8.429 17.973-9.771 3.657-.705 7.435-.788 11.158-1.152-4.489 3.762-9.083 6.78-13.578 9.942-.64.451-.792 1.593-1.17 2.415.848-.043 1.876.21 2.518-.177 5.539-3.338 10.978-6.841 16.504-10.201 11.577-7.041 23.286-13.833 36.562-17.27 5.632-1.458 11.429-2.425 17.148-1.192 7.31 1.576 14.598 3.441 21.687 5.812 7.938 2.655 15.604 6.121 23.465 9.026 4.688 1.732 9.49 3.185 14.304 4.541 3.978 1.119 7.429 4.849 6.197 7.671-.948 2.173-2.619 4.265-4.474 5.766-9.265 7.499-20.264 11.211-31.705 13.677-8.555 1.843-17.227 2.289-25.949 1.039-.731-.104-1.581.618-2.375.956.692.668 1.366 1.894 2.08 1.917 6.644.22 13.368.89 19.926.155 10.439-1.17 20.553-4.076 29.91-9.055 5.373-2.858 10.806-5.597 14.143-11.227 3.041-5.131 1.662-9.088-2.677-11.228-3.722-1.835-7.69-3.175-11.583-4.65-9.307-3.527-18.629-7.011-27.95-10.498-1.007-.376-2.062-.623-3.069-.996-3.722-1.376-7.435-2.781-11.601-4.343 7.129-3.035 13.94-3.088 20.7-1.384 11.307 2.849 20.982 8.959 30.281 15.775 5.291 3.88 10.66 7.669 16.156 11.252 2.563 1.673 4.346.575 3.899-2.518-.465-3.234-1.705-6.377-2.817-9.484-.24-.67-1.386-1.017-2.113-1.512-.146.917-.619 1.931-.381 2.733.747 2.504 1.758 4.922 2.667 7.37zm-161.607 59.095c1.239-1.029 2.62-1.784 3.449-2.935 2.792-3.877 5.861-7.662 7.952-11.912 3.451-7.013 6.25-14.35 9.27-21.572 1.902-4.548 3.388-9.267 7.353-12.677 4.067-3.5 8.963-5.079 14.001-5.705 10.527-1.307 21.125-2.026 31.682-3.111 1.032-.106 1.976-1.076 2.961-1.645-.968-.426-1.948-1.247-2.902-1.218-12.413.375-24.847.765-36.931 4.021-7.359 1.982-13.478 5.797-16.429 13.261-1.806 4.566-3.051 9.364-4.992 13.867a166.128 166.128 0 0 1-7.649 15.469c-1.9 3.387-4.447 6.413-6.705 9.601 1.69-8.534.865-16.899.591-25.235a27.42 27.42 0 0 0-.773-5.558c-.155-.637-1.11-1.079-1.7-1.61-.39.657-1.117 1.319-1.108 1.97.028 2.063.509 4.124.495 6.183-.048 7.135.009 14.287-.5 21.395-.167 2.323-1.342 5.393-3.103 6.628-4.944 3.468-9.55 7.117-13.332 11.881-5.634 7.098-7.972 14.753-4.7 23.538.333.894 1.375 1.522 2.088 2.275.228-1.086.696-2.186.638-3.256-.184-3.373-1.18-6.818-.744-10.085.951-7.121 5.783-12.146 10.804-16.754 2.456-2.253 5.083-5.101 9.048-4.04 4.812 1.289 9.636 2.622 14.294 4.365 4.662 1.745 9.102 4.074 13.702 5.999.676.284 1.695-.253 2.556-.41-.45-.747-.81-1.577-1.386-2.21-.37-.407-1.06-.521-1.604-.769-8.717-3.977-17.353-8.162-26.326-9.751zm53.483 22.106c6.938 9.464 15.848 17.647 27.982 21.423 3.349 1.042 7.192 1.415 10.663.967 7.855-1.014 10.941-7.384 12.432-13.916 2.575-11.278-.088-22.48-2.271-33.574-.161-.816-1.543-1.74-2.515-1.983-2.849-.713-5.771-1.132-8.672-1.621-10.046-1.691-20.103-2.729-30.224-.542-8.65 1.87-14.848 7.832-12.667 17.549.645 2.876 1.946 5.604 2.995 8.534-3.075-.55-5.947-1.076-8.824-1.576-8.486-1.476-16.967-2.986-25.474-4.335-.757-.12-1.685.837-2.534 1.294.669.542 1.271 1.222 2.026 1.587.77.371 1.682.475 2.544.625 7.716 1.339 15.429 2.698 23.155 3.974 3.608.594 7.242 1.019 11.384 1.594zm82.915 55.003.234-.724c3.691.037 5.814-1.857 5.063-5.419-.83-3.933-2.071-7.904-3.877-11.485-6.125-12.151-12.728-24.106-15.908-37.461-2.512-10.542-2.506-20.804 5.529-29.503.563-.611.43-1.868.619-2.825-.896.263-2.052.256-2.646.831-5.983 5.779-7.966 13.133-7.856 21.164.16 11.962 4.831 22.668 9.648 33.289 3.631 8.004 7.518 15.893 11.131 23.904.494 1.096.596 3.1-.063 3.789-.719.755-2.64.89-3.84.565-3.777-1.021-7.445-2.45-11.203-3.556-.74-.218-1.696.305-2.554.485.38.699.604 1.827 1.161 2.027 4.821 1.735 9.701 3.303 14.562 4.919zm-115.615 3.304c.738-.469 1.745-.971 2.553-1.693.271-.244.121-1.51.029-1.524-.959-.165-1.984-.019-2.916-.255-1.402-.355-2.945-.669-4.084-1.48-12.413-8.867-21.763-20.144-26.659-34.765-2.215-6.612-3.044-13.37-.625-20.134.915-2.56 2.274-4.958 3.242-7.502.235-.617-.278-1.518-.447-2.289-.722.316-1.835.44-2.102.981-1.589 3.22-3.527 6.408-4.337 9.845-2.347 9.961.221 19.407 4.629 28.246 4.67 9.369 11.23 17.421 19.329 24.137 3.259 2.704 6.553 5.383 11.388 6.433zm-5.593-31.696c.926-2.07 2.162-4.352 2.989-6.772 1.927-5.64.499-11.711-3.776-14.678-4.715-3.272-12.783-4.049-17.684-1.192-4.023 2.345-5.166 7.002-2.674 10.976 4.5 7.177 11.813 10.765 18.876 14.628.732.401 1.907-.008 2.877-.042l-.608-2.92zm150.98-55.71c-3.127-2.162-5.549-3.769-7.899-5.476-6.201-4.5-12.349-9.076-18.59-13.52-.634-.451-1.76-.211-2.656-.292.215.832.32 1.715.687 2.476.238.497.823.855 1.306 1.204 5.239 3.802 10.455 7.642 15.752 11.364 3.442 2.417 6.942 4.773 10.571 6.89.849.495 2.585.281 3.427-.306.563-.394.604-2.126.299-3.072-1.039-3.209-2.308-6.347-3.539-9.491-2.569-6.56-4.043-13.198-1.942-20.226.173-.579-.573-1.433-.892-2.159-.625.365-1.428.597-1.827 1.13-.447.594-.599 1.448-.757 2.214-1.334 6.411-.166 12.564 2.018 18.59 1.198 3.319 2.494 6.602 4.042 10.674zM102.337 301.747l-.113-1.021c-1.664 0-3.601-.56-4.943.098-5.467 2.673-10.719 5.779-16.112 8.609-9.958 5.226-19.968 10.351-29.937 15.557-2.672 1.395-5.271 2.929-8.071 4.492 3.213 2.75 5.691.361 7.915-.771 10.557-5.383 20.962-11.063 31.439-16.602 6.59-3.486 13.214-6.91 19.822-10.362zm174.153-84.339c-.043-.122-.149-.499-.307-.854-2.545-5.699-5.067-11.408-7.691-17.071-.206-.445-1.387-.939-1.655-.751-.53.369-1.085 1.246-1.009 1.832.156 1.231.6 2.465 1.131 3.603 1.941 4.16 4.089 8.229 5.879 12.45.426 1.003.18 2.779-.484 3.646-1.17 1.534-2.717 3.008-4.427 3.865-5.407 2.717-10.993 5.079-16.435 7.732-.819.4-1.237 1.627-1.842 2.472.94.101 2.013.545 2.803.247 6.342-2.391 12.816-4.604 18.365-8.594 2.775-1.994 5.388-4.444 5.672-8.577zm-174.784 81.265c1.762 1.722 3.344 1.806 5.31.743 9.75-5.268 19.57-10.402 29.305-15.697.899-.488 1.372-1.762 2.042-2.67-1.116-.021-2.438-.445-3.317.001-8.657 4.404-17.249 8.94-25.841 13.47-2.476 1.303-4.898 2.709-7.499 4.153zm166.226-85.364c-3.423 2.323-6.119 4.937-9.345 6.178-6.335 2.438-12.981 4.053-19.465 6.123-5.503 1.76-7.28 2.853-8.758 5.252.921-.159 1.504-.187 2.034-.363 7.283-2.432 14.576-4.831 21.83-7.348 4.951-1.717 10.164-3.082 13.188-7.986.307-.499.332-1.168.516-1.856zm-53.823-11.948c-.229-.35-.461-.695-.691-1.044 1.438-2.431 2.873-4.862 4.375-7.404-.988-1.751-2.494-1.617-3.641-.076-1.143 1.535-2.041 3.337-2.655 5.155-.856 2.529.411 4.699 2.812 5.011 3.998.521 8.215 1.151 11.926-1.933-1.258-.547-2.541-.772-3.797-.668-2.786.233-5.553.629-8.329.959zm30.616-17.769-.431 1.045c.272.288.496.663.825.852 3.348 1.92 3.979 4.542 2.199 7.907-.353.665-.531 1.507-.504 2.257.023.618.473 1.22.731 1.83 1.058-4.13 4.856-8.031.571-11.901-.95-.862-2.251-1.337-3.391-1.99z"/><path d="M302.5 361.8c-8.191-2.192-16.396-4.337-24.568-6.592-8.238-2.272-16.263-5.042-23.351-10.058-4.646-3.285-6.72-6.662-6.999-12.467-6.039 3.262-10.044 8.104-12.436 14.364-.174.458-.426.899-.519 1.374-2.214 11.333-9.42 12.572-17.503 13.227-11.104.897-22.307.75-33.466.711-6.226-.023-12.451-.696-18.667-1.195-.663-.055-1.26-.916-1.889-1.402.586-.527 1.185-1.523 1.757-1.508 5.353.143 10.703.446 16.052.734 1.078.059 2.147.361 3.221.365 8.3.031 16.604.213 24.896-.061 4.488-.146 8.964-1.021 13.426-1.695 4.1-.617 7.036-2.824 8.277-6.887 2.311-7.552 5.607-14.439 12.848-19.072-43.264-1.707-78.074-17.855-101.194-55.066-3.932 1.008-7.899 2.117-11.921 2.974-.808.172-1.823-.627-2.742-.979.792-.658 1.482-1.586 2.394-1.934 4.746-1.811 9.959-2.795 14.219-5.372 4.465-2.7 5.355-7.76 4.315-12.886-1.521-7.496-5.492-13.877-10.138-19.643-6.206-7.701-13.131-14.819-19.663-22.264-.639-.728-.68-1.978-.999-2.984 1.081.295 2.505.25 3.188.938 5.225 5.274 10.306 10.69 15.38 16.011.92-2.01 1.943-1.941 3.868-.465 8.948 6.879 17.834 13.872 27.162 20.208 11.452 7.779 24.048 13.612 36.934 18.511 12.999 4.938 26.557 8.176 40.661 7.146 8.278-.604 16.276-2.405 21.962-9.341 2.991-3.65 4.105-7.907 4.327-12.565.074-1.586 1.069-3.128 1.646-4.688l.82.242c.26 1.539.52 3.076.781 4.631 6.381-2.217 10.465-10.904 9.654-17.558-1.155-9.474-4.075-18.817-2.902-28.505.589-4.859 1.316-9.731 2.432-14.492 1.729-7.391-.402-13.84-4.337-19.855-2.571-3.931-5.505-7.627-8.349-11.373-1.046-1.378-2.139-1.762-4.254-1.414-7.365 1.212-13.852-.897-18.573-7.026-5.276-6.85-7.222-14.866-7.765-23.299-.189-2.937-.068-5.894-.09-8.842 0-.099.014-.2-.002-.297-.188-1.205-.383-2.409-.574-3.614 1.349.087 2.697.164 4.043.263 10.437.764 20.424 3.266 29.687 8.176 5.313 2.816 9.563 6.849 10.747 13.05 1.098 5.746-1.023 10.69-4.998 14.758-1.965 2.009-4.361 3.594-6.354 5.201 3.465 5.021 7.354 10.195 10.732 15.683 3.344 5.429 4.415 11.451 3.246 17.845-1.49 8.148-3.38 16.287-2.566 24.656.367 3.795 1.483 7.524 1.773 11.321.418 5.469 1.104 11.073.344 16.431-.687 4.817-5.07 7.858-8.686 10.938-1.995 1.7-4.092 3.172-4.93 5.876-1.885 6.072-6.229 10.05-11.793 13.043 8.776-.512 17.32-1.039 25.869-1.499 8.224-.44 16.445-.868 24.673-1.199 6.959-.28 13.947-.874 20.877-.481 6.7.379 13.583.313 19.923 3.354 4.167 2 6.472 5.271 7.522 9.619 1.521 6.289 2.769 12.722 7.151 17.823 2.682 3.121 5.62 6.021 8.45 9.014.479.509 1.187.898 1.449 1.493.34.766.338 1.683.482 2.534-.853-.127-1.92.031-2.522-.424-9.241-6.978-15.207-16.088-17.435-27.504-1.807-9.254-5.995-10.92-13.268-11.64-9.666-.956-19.429-1.221-29.15-1.252-8.123-.026-16.252.651-24.372 1.125-8.988.522-17.973 1.147-26.953 1.786-1.213.085-2.402.497-4.246.896 4.084 4.301 7.895 8.149 11.517 12.168 5.407 6 11.069 11.83 15.907 18.271 5.029 6.693 2.233 13.912-5.317 16.988-3.528 1.438-7.161 2.625-11.453 4.183 5.562 3.416 10.632 7.003 16.109 9.793 9.522 4.851 19.308 9.185 28.955 13.793 2.538 1.212 5.65 2.206 5.62 5.718-.03 3.476-3.156 4.545-5.683 5.614-4.311 1.825-8.769 3.321-13.224 4.774-.698.229-1.708-.495-2.573-.779.595-.705 1.05-1.762 1.804-2.059 4.45-1.752 9.004-3.244 13.444-5.021 1.278-.512 2.294-1.678 4.178-3.114-5.521-2.693-10.242-5.238-15.151-7.348-13.197-5.668-26.168-11.689-37.164-21.199-.891-.771-1.945-1.379-2.713-2.248-.332-.373-.336-1.322-.097-1.82.175-.361 1.298-.731 1.48-.559 3.101 2.971 6.149.285 9.104-.188 2.401-.385 4.68-1.635 6.971-2.598 3.824-1.609 7.31-6.803 3.709-11.406-4.863-6.221-10.168-12.1-15.354-18.063-4.206-4.836-8.649-9.472-12.715-14.42-1.593-1.938-3.12-1.652-5.065-1.266-10.545 2.105-21 .916-31.338-1.314-11.568-2.497-22.417-7.094-33.102-12.1-12.643-5.924-24.434-13.227-35.566-21.617-4.528-3.413-8.991-6.914-14.034-10.801 2.927 4.355 5.618 8.055 7.98 11.951 3.699 6.104 6.97 12.407 6.016 19.938-.447 3.525-1.75 5.671-6.506 10.951 4.736 8.191 10.353 15.746 17.221 22.287 10.362 9.865 22.244 17.52 35.651 22.438 8.128 2.982 16.536 5.491 25.028 7.105 8.413 1.6 17.069 2.322 25.706.873 1.053-.176 2.23.396 3.351.621-.338.918-.976 1.845-.955 2.756.05 2.34-.28 5.031.739 6.941 2.911 5.441 8.429 8.063 13.873 9.87 11.48 3.813 23.193 6.925 34.811 10.33.469.138.898.44 1.37.517 2.112.34 4.354 1.455 4.03 3.455-.23 1.432-2.516 2.765-4.145 3.67-1.402.779-3.16 1.09-4.793 1.221-.84.066-1.746-.711-2.623-1.105.625-.586 1.153-1.431 1.894-1.705 1.983-.734 4.06-1.226 6.097-1.813.003-.195-.003-.4-.008-.606zm-59.436-240.819c.218 9.75.299 19.197 5.357 27.549 1.78 2.941 4.283 5.829 7.148 7.654 7.195 4.581 16.598 1.551 22.076-4.868 1.916-2.244 3.307-5.47 3.664-8.403.846-6.944-3.888-10.937-9.217-13.927-8.8-4.938-18.466-7.106-29.028-8.005zM263.563 65.959c-.908-2.449-1.92-4.867-2.662-7.365-.238-.803.233-1.816.382-2.733.728.495 1.872.842 2.112 1.512 1.112 3.107 2.354 6.25 2.817 9.484.445 3.093-1.336 4.19-3.899 2.518-5.496-3.583-10.864-7.372-16.156-11.252-9.299-6.815-18.975-12.926-30.281-15.775-6.759-1.704-13.57-1.651-20.7 1.384 4.166 1.563 7.88 2.967 11.601 4.343 1.009.373 2.063.619 3.07.996 9.32 3.487 18.643 6.97 27.949 10.498 3.893 1.475 7.862 2.815 11.583 4.65 4.339 2.14 5.718 6.097 2.677 11.229-3.337 5.629-8.77 8.368-14.143 11.227-9.357 4.979-19.471 7.885-29.91 9.055-6.559.735-13.282.065-19.926-.155-.714-.023-1.388-1.249-2.08-1.917.794-.338 1.644-1.061 2.375-.956 8.724 1.25 17.396.805 25.949-1.039 11.441-2.466 22.44-6.178 31.705-13.677 1.854-1.501 3.524-3.593 4.474-5.766 1.229-2.822-2.222-6.552-6.197-7.671-4.813-1.355-9.614-2.808-14.304-4.541-7.861-2.905-15.525-6.371-23.465-9.026-7.088-2.37-14.376-4.236-21.686-5.812-5.72-1.233-11.516-.266-17.148 1.192-13.275 3.437-24.984 10.229-36.562 17.27-5.526 3.36-10.965 6.863-16.504 10.201-.642.387-1.67.134-2.518.177.378-.822.531-1.964 1.17-2.415 4.494-3.162 9.088-6.18 13.578-9.942-3.723.364-7.501.447-11.158 1.152-6.971 1.342-13.661 3.367-17.973 9.771-3.076 4.568-3.785 9.833-4.656 15.041-1.144 6.837-1.874 13.753-3.272 20.535-.646 3.133-2.453 6.026-3.805 9.196 1.081-.152 1.922-.399 2.747-.354.978.055 1.942.362 2.912.56-.763.705-1.417 1.627-2.309 2.075-2.872 1.441-6 2.433-8.718 4.104-4.088 2.514-5.244 7.051-6.991 11.197-1.739 4.125-3.829 8.114-5.997 12.035-.448.811-1.92 1.055-2.92 1.561.15-1.005.083-2.107.484-3 2.515-5.599 4.761-11.369 7.835-16.652 2.471-4.247 6.431-7.626 8.915-11.867 2.487-4.247 4.593-8.935 5.733-13.7 1.679-7.016 2.259-14.289 3.476-21.423 2.15-12.612 8.752-18.544 20.385-21.21 5.89-1.349 12.107-1.604 18.186-1.675 3.358-.039 5.774-1.666 8.469-2.93 7.582-3.556 14.966-7.579 22.701-10.754 8.5-3.489 17.498-4.269 26.666-3.037 1.634.219 3.581-.044 5.053-.762 9.388-4.579 18.875-3.967 28.396-.761 12.852 4.327 23.608 12.211 34.181 20.398 2.469 1.912 5.116 3.591 7.683 5.377.22-.194.448-.382.676-.571z"/><path d="M101.956 125.054c8.974 1.589 17.61 5.774 26.325 9.75.545.249 1.235.362 1.604.769.576.633.936 1.463 1.386 2.21-.86.157-1.879.694-2.556.41-4.6-1.925-9.04-4.254-13.702-5.999-4.658-1.743-9.482-3.077-14.294-4.365-3.965-1.062-6.592 1.786-9.048 4.04-5.021 4.608-9.853 9.633-10.804 16.754-.436 3.268.56 6.712.744 10.085.058 1.071-.41 2.17-.638 3.256-.713-.752-1.755-1.381-2.088-2.275-3.272-8.785-.934-16.44 4.7-23.538 3.781-4.764 8.388-8.413 13.332-11.881 1.761-1.235 2.936-4.305 3.103-6.628.51-7.108.453-14.259.5-21.395.014-2.059-.467-4.12-.495-6.183-.009-.651.718-1.313 1.108-1.97.59.531 1.545.973 1.7 1.61a27.42 27.42 0 0 1 .773 5.558c.274 8.336 1.099 16.701-.591 25.235 2.257-3.188 4.804-6.213 6.705-9.601a165.757 165.757 0 0 0 7.649-15.469c1.941-4.502 3.187-9.3 4.992-13.867 2.952-7.464 9.07-11.279 16.429-13.261 12.084-3.255 24.518-3.645 36.931-4.021.954-.029 1.934.792 2.902 1.218-.985.569-1.929 1.539-2.961 1.645-10.557 1.084-21.155 1.804-31.682 3.111-5.038.625-9.934 2.205-14.001 5.705-3.965 3.411-5.451 8.129-7.353 12.677-3.021 7.222-5.819 14.559-9.27 21.572-2.091 4.25-5.16 8.035-7.952 11.912-.829 1.152-2.209 1.907-3.448 2.936z"/><path d="M155.439 147.16c-4.142-.575-7.776-1-11.381-1.595-7.727-1.276-15.439-2.635-23.155-3.974-.862-.149-1.774-.253-2.544-.625-.755-.365-1.357-1.045-2.026-1.587.849-.457 1.777-1.414 2.534-1.294 8.507 1.349 16.988 2.859 25.474 4.335 2.877.5 5.75 1.026 8.824 1.576-1.049-2.93-2.35-5.658-2.995-8.534-2.182-9.717 4.016-15.68 12.667-17.549 10.121-2.187 20.178-1.149 30.224.542 2.901.489 5.824.908 8.671 1.621.973.243 2.354 1.167 2.516 1.983 2.184 11.094 4.846 22.296 2.271 33.574-1.49 6.532-4.576 12.902-12.433 13.916-3.471.448-7.313.075-10.663-.967-12.136-3.775-21.047-11.958-27.984-21.422zm21.429-27.885c-4.586.521-9.139.865-13.63 1.592-6.274 1.016-10.62 5.648-10.484 11.015.121 4.809 2.139 8.999 4.809 12.872 6.71 9.734 15.33 16.947 26.609 21.073 9.363 3.425 17.875-1.167 19.473-10.984 1.678-10.324.19-20.406-2.178-30.414-.188-.794-1.492-1.74-2.396-1.885-7.365-1.185-14.758-2.196-22.203-3.269zM238.354 202.163c-4.86-1.616-9.74-3.184-14.561-4.918-.559-.2-.781-1.329-1.161-2.027.856-.181 1.813-.703 2.554-.485 3.758 1.105 7.426 2.535 11.203 3.556 1.2.324 3.121.19 3.84-.565.656-.689.557-2.693.063-3.789-3.614-8.011-7.5-15.899-11.131-23.904-4.817-10.621-9.488-21.327-9.648-33.289-.109-8.031 1.873-15.385 7.856-21.164.595-.574 1.751-.568 2.646-.831-.189.957-.056 2.213-.619 2.825-8.035 8.699-8.041 18.961-5.529 29.503 3.182 13.354 9.783 25.31 15.908 37.461 1.806 3.581 3.047 7.552 3.877 11.485.752 3.562-1.371 5.458-5.063 5.418-.077.241-.155.483-.235.724zM122.739 205.467c-4.835-1.05-8.128-3.729-11.389-6.434-8.099-6.716-14.658-14.768-19.329-24.137-4.408-8.839-6.976-18.285-4.629-28.246.81-3.438 2.749-6.625 4.337-9.845.267-.542 1.38-.665 2.102-.981.169.771.682 1.672.447 2.289-.968 2.544-2.327 4.942-3.242 7.502-2.419 6.764-1.589 13.521.625 20.134 4.896 14.621 14.246 25.898 26.659 34.765 1.139.813 2.682 1.125 4.084 1.48.932.236 1.957.09 2.916.255.092.017.242 1.281-.029 1.524-.808.723-1.814 1.225-2.552 1.694z"/><path d="m117.146 173.771.607 2.921c-.97.033-2.145.442-2.877.042-7.063-3.864-14.376-7.452-18.876-14.628-2.492-3.974-1.349-8.631 2.674-10.976 4.901-2.856 12.969-2.08 17.684 1.192 4.275 2.966 5.703 9.038 3.776 14.678-.826 2.419-2.062 4.7-2.988 6.771zm-3.101-.29c1.079-2.451 2.263-4.374 2.756-6.459.593-2.512 1.222-5.288.73-7.727-.981-4.862-4.585-6.89-11.219-6.94-3.34-.025-6.854.404-8.198 4.038-1.195 3.231.977 5.797 3.242 7.661 4.047 3.328 8.407 6.279 12.689 9.427zM268.126 118.061c-1.548-4.072-2.844-7.355-4.046-10.673-2.184-6.026-3.352-12.179-2.018-18.59.158-.766.31-1.62.756-2.214.4-.534 1.203-.765 1.828-1.13.317.726 1.063 1.581.892 2.159-2.101 7.028-.627 13.667 1.942 20.226 1.231 3.145 2.5 6.282 3.539 9.491.306.946.266 2.679-.299 3.072-.842.587-2.578.801-3.427.306-3.629-2.117-7.129-4.473-10.571-6.89-5.298-3.722-10.513-7.562-15.753-11.364-.481-.349-1.065-.708-1.305-1.204-.365-.76-.472-1.644-.687-2.476.896.081 2.022-.16 2.656.292 6.241 4.444 12.389 9.02 18.59 13.52 2.354 1.706 4.776 3.313 7.903 5.475zM102.337 301.747c-6.608 3.452-13.231 6.876-19.822 10.36-10.478 5.539-20.883 11.22-31.439 16.603-2.224 1.134-4.702 3.521-7.915.771 2.8-1.563 5.399-3.098 8.071-4.492 9.968-5.205 19.979-10.33 29.937-15.557 5.393-2.828 10.645-5.937 16.112-8.609 1.343-.655 3.28-.098 4.943-.098l.113 1.022zM276.49 217.408c-.284 4.133-2.897 6.583-5.672 8.578-5.549 3.99-12.023 6.203-18.365 8.594-.79.298-1.861-.146-2.803-.247.604-.845 1.021-2.069 1.842-2.472 5.441-2.653 11.025-5.016 16.435-7.732 1.71-.857 3.257-2.331 4.427-3.865.664-.867.91-2.645.484-3.646-1.79-4.221-3.938-8.29-5.879-12.45-.531-1.137-.975-2.37-1.131-3.603-.076-.585.479-1.462 1.009-1.832.269-.188 1.449.306 1.655.751 2.624 5.663 5.146 11.372 7.691 17.071.158.354.264.731.307.853zM101.706 298.673c2.601-1.444 5.023-2.85 7.499-4.153 8.593-4.528 17.184-9.064 25.841-13.47.878-.446 2.201-.021 3.317-.001-.67.908-1.143 2.182-2.042 2.67-9.735 5.295-19.555 10.432-29.305 15.697-1.967 1.063-3.549.979-5.31-.743z"/><path d="M267.932 213.309c-.184.688-.209 1.357-.516 1.854-3.021 4.905-8.234 6.271-13.188 7.987-7.254 2.516-14.547 4.916-21.83 7.347-.53.178-1.113.204-2.034.362 1.478-2.398 3.255-3.491 8.758-5.25 6.481-2.071 13.13-3.687 19.465-6.125 3.226-1.24 5.922-3.852 9.345-6.175zM214.109 201.361c2.774-.33 5.543-.728 8.326-.958 1.258-.104 2.541.123 3.797.667-3.711 3.086-7.928 2.453-11.924 1.934-2.4-.313-3.67-2.48-2.813-5.011.615-1.818 1.514-3.621 2.654-5.155 1.146-1.541 2.652-1.676 3.642.076l-4.375 7.404c.232.348.464.696.693 1.043zM244.725 183.592c1.142.653 2.441 1.128 3.395 1.989 4.285 3.87.486 7.771-.571 11.901-.26-.609-.708-1.211-.731-1.83-.027-.75.151-1.593.504-2.257 1.777-3.364 1.147-5.987-2.199-7.907-.329-.189-.553-.563-.825-.852.14-.347.283-.696.427-1.044z"/><path fill="none" d="M243.064 120.981c10.562.899 20.228 3.067 29.031 8.005 5.328 2.99 10.062 6.982 9.215 13.927-.356 2.933-1.748 6.159-3.664 8.403-5.479 6.419-14.879 9.448-22.076 4.868-2.864-1.825-5.367-4.713-7.147-7.654-5.06-8.352-5.141-17.799-5.359-27.549zm27.029 18.858c-.022.445-.046.889-.069 1.333-1.894.542-3.758 1.377-5.687 1.568-4.464.442-8.815-.234-13.012-1.948-.593-.242-1.501.287-2.263.459.33.712.477 1.76 1.03 2.068 1.259.698 2.701 1.375 4.103 1.45 4.863.261 9.816.836 14.59.196 4.626-.621 5.554-4.978 2.029-8.059-1.737-1.521-3.883-2.622-5.959-3.687-.65-.333-1.681.072-2.537.139.463.802.735 1.859 1.418 2.359 2.035 1.493 4.227 2.765 6.357 4.122zM176.868 119.275c7.446 1.073 14.838 2.084 22.203 3.269.903.146 2.207 1.091 2.396 1.885 2.368 10.008 3.854 20.09 2.178 30.414-1.599 9.817-10.109 14.409-19.473 10.984-11.279-4.126-19.899-11.338-26.609-21.073-2.669-3.873-4.688-8.063-4.809-12.872-.135-5.366 4.21-9.999 10.484-11.015 4.491-.727 9.044-1.07 13.63-1.592zm6.808 38.975c2.14-1.205 4.459-1.974 6.032-3.508 3.2-3.125 6.033-6.631 8.911-10.07.333-.398-.01-1.363-.04-2.065-.702.047-1.699-.188-2.058.187-2.416 2.528-4.771 5.123-7.002 7.815-3.357 4.052-4.002 4.671-9.146 3.16-1.856-.545-3.548-1.633-5.385-2.271-.567-.197-1.366.276-2.059.443.181.688.164 1.805.574 1.995 3.253 1.499 6.587 2.822 10.173 4.314zM114.045 173.481c-4.283-3.148-8.642-6.099-12.689-9.428-2.266-1.863-4.438-4.429-3.242-7.661 1.344-3.633 4.858-4.063 8.198-4.038 6.634.051 10.238 2.079 11.219 6.94.492 2.439-.137 5.215-.73 7.727-.492 2.086-1.676 4.009-2.756 6.46z"/><path d="M270.093 139.839c-2.13-1.357-4.321-2.629-6.354-4.12-.684-.5-.956-1.557-1.418-2.359.855-.067 1.886-.473 2.535-.139 2.078 1.064 4.223 2.166 5.961 3.687 3.522 3.081 2.596 7.438-2.03 8.059-4.772.64-9.728.064-14.589-.196-1.401-.075-2.844-.752-4.104-1.45-.555-.308-.699-1.356-1.031-2.068.763-.172 1.67-.701 2.264-.459 4.195 1.714 8.548 2.39 13.012 1.948 1.93-.191 3.793-1.025 5.688-1.568.02-.445.043-.89.066-1.335zM183.676 158.25c-3.586-1.492-6.92-2.815-10.172-4.315-.41-.189-.393-1.307-.574-1.995.693-.167 1.492-.64 2.059-.443 1.837.638 3.528 1.726 5.385 2.271 5.144 1.511 5.789.892 9.146-3.16 2.23-2.692 4.586-5.288 7.002-7.815.358-.375 1.355-.14 2.058-.187.03.702.373 1.667.04 2.065-2.878 3.439-5.711 6.946-8.911 10.07-1.573 1.535-3.893 2.304-6.033 3.509z"/></g><text font-family="'MyriadPro-Regular'" font-size="24" transform="translate(140.5 30.5)">MEMESH*T</text><text font-family="'MyriadPro-Regular'" font-size="24" transform="translate(113.832 391)">The Sh*tish Meme</text></svg>