<svg xmlns="http://www.w3.org/2000/svg" xml:space="preserve" id="Layer_1" x="0" y="0" style="enable-background:new 0 0 419.2 118" version="1.1" viewBox="0 0 419.2 118"><style type="text/css">.st0{fill:#bb9645}</style><g><path d="M119.9 22.8c-2.2-2.2-3.3-5-3.3-8.3 0-3.4 1.1-6.2 3.3-8.3 2.2-2.2 5.1-3.3 8.7-3.3 3.6 0 6.5 1.1 8.7 3.3 2.2 2.2 3.3 5 3.3 8.3 0 3.4-1.1 6.2-3.3 8.3-2.2 2.2-5.1 3.3-8.7 3.3-3.6 0-6.5-1.1-8.7-3.3zm-.4 12.2h18.3v79.3h-18.3V35zM154.7 35h17v10.8c2.1-3.3 5.2-6 9.1-8 4-2.1 8.1-3.1 12.3-3.1h9.5v15.9h-9.5c-6 0-10.9 1.9-14.6 5.6-3.7 3.7-5.6 8.5-5.6 14.5v43.7h-18.3V35zM210.1 109.4c-4.9-4.1-7.4-9.5-7.4-16.3v-5.7c0-6.7 2.6-12 7.7-16.1 5.1-4 11.9-6 20.3-6h28.5v-5.2c0-3.3-1.1-5.9-3.2-7.9s-4.9-3-8.3-3h-13.4c-3.5 0-6.3.8-8.4 2.5-2.1 1.6-3.2 3.8-3.2 6.4h-17.8c0-7.3 2.7-13.2 8.1-17.6 5.4-4.5 12.5-6.7 21.3-6.7h13.4c8.9 0 16.1 2.4 21.5 7.2 5.4 4.8 8.1 11.2 8.1 19.2v54.2h-17v-10c-2.5 3.4-5.7 6.1-9.5 8.2-3.8 2.1-7.6 3.1-11.3 3.1h-9.9c-8.1-.2-14.6-2.2-19.5-6.3zm30.4-8.2c4.2 0 8.1-1.2 11.4-3.6 3.4-2.4 5.8-5.5 7.2-9.5v-8.7h-28c-3.2 0-5.7.8-7.7 2.4-2 1.6-2.9 3.7-2.9 6.2v4.4c0 2.7 1 4.8 3 6.4 2 1.6 4.7 2.4 7.9 2.4h9.1zM304.1 108.2c-4.1-4-6.2-10.4-6.2-19.1V50.7h-14V35h14.5V11h17.8v24h20.7v15.7h-20.7v37.8c0 3.5.7 6 2.1 7.6 1.4 1.6 3.5 2.4 6.5 2.4h12.1v15.7h-13c-9.1.1-15.7-1.9-19.8-6zM357.4 111.9c-4.9-2.4-8.7-5.9-11.4-10.3-2.7-4.5-4.1-9.6-4.1-15.4V64.8c0-6.1 1.4-11.6 4.1-16.3 2.7-4.7 6.5-8.4 11.4-11 4.9-2.6 10.6-3.9 17.1-3.9h12.7c9.6 0 17.4 2.8 23.2 8.4 5.8 5.6 8.7 13.1 8.7 22.4v15.9h-59V86c0 4.2 1.3 7.6 3.9 10.2 2.6 2.5 6.1 3.8 10.4 3.8h12.2c4.2 0 7.7-1 10.3-3.1 2.6-2.1 3.9-4.8 3.9-8.2h18c0 8.1-3 14.5-8.9 19.4-5.9 4.9-13.7 7.3-23.4 7.3h-12.1c-6.4.1-12.1-1.1-17-3.5zm43.8-45.1v-2.2c0-4.7-1.3-8.4-3.8-11.3-2.5-2.9-5.9-4.3-10-4.3h-12.9c-4.3 0-7.9 1.5-10.6 4.5-2.7 3-4.1 7-4.1 11.8v1.4h41.4z" class="st0"/><g><path d="M20.8 30.9c0-3.8 3.5-7 7.9-7h38.8L95.6 9.8c-4.3-4.3-10.3-6.9-16.8-6.9h-55C10.4 2.9-.3 13.6-.3 26.9v32.3l21.1-11V30.9zM102.7 25.6 81.6 36.2v21.1c0 3.9-3.6 7.1-8 7.1H27.2L-.3 78.7v35.5H8l7.2-.2c3.1-.7 5.7-3.6 5.7-7.1V86.6h57.9c13.2 0 24-10.7 24-24V26.8c-.1-.4-.1-.8-.1-1.2z" class="st0"/></g></g></svg>