<svg xmlns="http://www.w3.org/2000/svg" id="svg8" width="205.71" height="78.569" version="1.1" viewBox="0 0 54.427 20.788"><g id="layer1" transform="translate(22.823 -42.072)"><path id="path857" d="M16.893 54.157c-2.035-.338-4.287-2.667-5.295-5.474-.574-1.596-.791-4.01-.45-4.991.302-.87 1.078-1.154 1.418-.52.052.099.127.793.165 1.544.131 2.555.699 4.249 1.93 5.756 1.893 2.321 3.833 2.362 5.545.118 1.377-1.805 1.87-3.69 1.653-6.325-.055-.678-.073-1.341-.04-1.475.035-.134.177-.358.316-.498.216-.216.298-.246.556-.204.167.027.38.117.475.2.622.553.91 2.818.61 4.806-.174 1.157-.34 1.735-.763 2.642-1.144 2.46-2.862 4.07-4.693 4.396-.719.128-.798.13-1.427.025z" style="fill:#000;stroke-width:.0846667"/><path id="path855" d="M-8.988 54.506c-1.065-.16-1.88-.538-2.849-1.318-1.394-1.123-2.565-3.372-2.86-5.492-.183-1.317-.028-3.384.349-4.641.176-.59.732-.839 1.084-.487.2.2.217.58.072 1.538-.208 1.365.19 3.734.845 5.038 1.14 2.265 2.846 3.476 4.456 3.16.85-.167 1.373-.473 2.162-1.266.575-.578.79-.868 1.07-1.443.661-1.362.97-2.485 1.209-4.39.133-1.065.57-1.6 1.205-1.478.284.054.698.489.823.864.44 1.316-.514 4.967-1.803 6.904-.818 1.229-2.047 2.243-3.282 2.708-.474.178-1.667.408-1.958.377-.055-.006-.29-.04-.523-.074z" style="fill:#000;stroke-width:.0846667"/><path id="path853" d="M1.756 58.958C.63 58.606-.34 57.298-.651 55.715c-.057-.292-.087-.896-.068-1.37.03-.752.057-.872.236-1.063.332-.353.762-.252.926.219.052.147.094.483.094.746 0 .957.48 2.178 1.1 2.799.622.621.998.524 1.506-.39.152-.275.409-.623.57-.774.253-.239.352-.276.736-.276h.443l.65.678c.402.418.718.677.826.677.258 0 .758-.546 1.034-1.13.245-.517.34-.895.492-1.947.101-.698.246-.94.638-1.07.378-.124.682.007.955.413.248.368.257 1.05.028 2.008-.284 1.182-.717 1.994-1.455 2.728-.565.562-.94.729-1.639.729-.682 0-1.09-.174-1.562-.665-.16-.167-.332-.303-.38-.3-.05.001-.19.149-.314.327-.582.842-1.503 1.187-2.41.904z" style="fill:#000;stroke-width:.0846667"/><path id="path851" d="M24.043 62.674c-1.516-.384-2.747-1.597-3.309-3.26-.205-.606-.243-.855-.245-1.606-.004-1.833.686-3.263 2.11-4.37.635-.494 1.216-.787 2.327-1.174 2.02-.705 3.46-.422 4.929.968.81.769 1.246 1.45 1.556 2.439.2.637.215.79.177 1.735-.048 1.184-.192 1.688-.758 2.645-.735 1.243-1.89 2.11-3.327 2.498-.896.242-2.736.309-3.46.125z" style="fill:#ff6187;fill-opacity:1;stroke-width:.0846667"/><path id="path847" d="M-18.894 62.768c-2.05-.471-3.292-1.62-3.77-3.487a4.391 4.391 0 0 1-.044-2.166c.449-2.12 1.823-3.73 3.722-4.363.633-.21.793-.228 2.124-.232 1.61-.004 1.713.023 2.383.636.193.177.517.406.72.51.549.279 1.526 1.299 1.839 1.919.966 1.914.57 3.963-1.083 5.617-1.178 1.178-2.247 1.598-4.198 1.65-.81.022-1.346-.004-1.693-.084z" style="fill:#ff6187;fill-opacity:1;stroke-width:.0846667"/></g></svg>